<svg width="25" height="28" viewBox="0 0 25 28" fill="none" xmlns="http://www.w3.org/2000/svg">
<path d="M12.0101 17.889C12.0101 17.889 12.3139 17.889 12.9216 17.889C13.5292 17.889 14.2584 17.4637 15.1091 16.613C15.9598 15.7623 16.3851 14.7293 16.3851 13.514C16.3851 12.2987 15.9598 11.2657 15.1091 10.415C14.2584 9.56434 13.2254 9.139 12.0101 9.139C10.7948 9.139 9.76185 9.56434 8.91116 10.415C8.06047 11.2657 7.63512 12.2987 7.63512 13.514C7.63512 14.7293 8.06047 15.7623 8.91116 16.613C9.76185 17.4637 10.7948 17.889 12.0101 17.889ZM12.0101 16.139C12.0101 16.139 11.8278 16.139 11.4632 16.139C11.0987 16.139 10.6612 15.8838 10.1507 15.3734C9.64033 14.863 9.38512 14.2432 9.38512 13.514C9.38512 12.7848 9.64033 12.165 10.1507 11.6546C10.6612 11.1442 11.281 10.889 12.0101 10.889C12.7393 10.889 13.3591 11.1442 13.8695 11.6546C14.3799 12.165 14.6351 12.7848 14.6351 13.514C14.6351 14.2432 14.3799 14.863 13.8695 15.3734C13.3591 15.8838 12.7393 16.139 12.0101 16.139ZM12.0101 20.8057C12.0101 20.8057 11.4187 20.8057 10.2358 20.8057C9.05294 20.8057 7.48928 20.1454 5.54484 18.8248C3.6004 17.5042 2.19067 15.7339 1.31567 13.514C2.19067 11.2941 3.6004 9.52384 5.54484 8.20323C7.48928 6.88263 9.64438 6.22233 12.0101 6.22233C14.3759 6.22233 16.531 6.88263 18.4754 8.20323C20.4198 9.52384 21.8296 11.2941 22.7046 13.514C21.8296 15.7339 20.4198 17.5042 18.4754 18.8248C16.531 20.1454 14.3759 20.8057 12.0101 20.8057ZM12.0101 18.8612C12.0101 18.8612 12.4679 18.8612 13.3834 18.8612C14.2989 18.8612 15.5223 18.3792 17.0535 17.415C18.5848 16.4509 19.7555 15.1506 20.5657 13.514C19.7555 11.8774 18.5848 10.5771 17.0535 9.61296C15.5223 8.64884 13.8411 8.16677 12.0101 8.16677C10.1791 8.16677 8.49797 8.64884 6.96672 9.61296C5.43547 10.5771 4.26475 11.8774 3.45456 13.514C4.26475 15.1506 5.43547 16.4509 6.96672 17.415C8.49797 18.3792 10.1791 18.8612 12.0101 18.8612Z" fill="white" fill-opacity="0.6"/>
</svg>
