<svg width="20" height="20" viewBox="0 0 20 20" fill="none" xmlns="http://www.w3.org/2000/svg">
<path d="M9.775 19.7C7.24167 19.7 5.0375 18.8583 3.1625 17.175C1.2875 15.4917 0.233333 13.3833 0 10.85H3.175C3.425 12.5 4.17083 13.8625 5.4125 14.9375C6.65417 16.0125 8.10833 16.55 9.775 16.55C11.6417 16.55 13.225 15.9 14.525 14.6C15.825 13.3 16.475 11.7167 16.475 9.85C16.475 7.98333 15.825 6.4 14.525 5.1C13.225 3.8 11.6417 3.15 9.775 3.15C8.825 3.15 7.91667 3.34583 7.05 3.7375C6.18333 4.12917 5.43333 4.69167 4.8 5.425H6.85V7.85H0.175V1.225H2.55V3.2C3.48333 2.16667 4.57083 1.375 5.8125 0.825C7.05417 0.275 8.375 0 9.775 0C11.125 0 12.4 0.258333 13.6 0.775C14.8 1.29167 15.8458 1.99583 16.7375 2.8875C17.6292 3.77917 18.3333 4.825 18.85 6.025C19.3667 7.225 19.625 8.5 19.625 9.85C19.625 11.2 19.3667 12.475 18.85 13.675C18.3333 14.875 17.6292 15.9208 16.7375 16.8125C15.8458 17.7042 14.8 18.4083 13.6 18.925C12.4 19.4417 11.125 19.7 9.775 19.7ZM12.45 14.25L8.65 10.45V4.85H11.025V9.45L14.15 12.55L12.45 14.25Z" fill="white"/>
</svg>
