<svg width="27" height="32" viewBox="0 0 27 32" fill="none" xmlns="http://www.w3.org/2000/svg">
<path d="M13.5 31.5C11.625 31.5 9.86875 31.1437 8.23125 30.4312C6.59375 29.7188 5.16875 28.7563 3.95625 27.5438C2.74375 26.3313 1.78125 24.9062 1.06875 23.2687C0.35625 21.6312 0 19.875 0 18H3C3 20.925 4.01875 23.4062 6.05625 25.4438C8.09375 27.4813 10.575 28.5 13.5 28.5C16.425 28.5 18.9062 27.4813 20.9438 25.4438C22.9813 23.4062 24 20.925 24 18C24 15.075 22.9813 12.5938 20.9438 10.5562C18.9062 8.51875 16.425 7.5 13.5 7.5H13.275L15.6 9.825L13.5 12L7.5 6L13.5 0L15.6 2.175L13.275 4.5H13.5C15.375 4.5 17.1312 4.85625 18.7687 5.56875C20.4062 6.28125 21.8313 7.24375 23.0438 8.45625C24.2563 9.66875 25.2188 11.0938 25.9312 12.7312C26.6437 14.3687 27 16.125 27 18C27 19.875 26.6437 21.6312 25.9312 23.2687C25.2188 24.9062 24.2563 26.3313 23.0438 27.5438C21.8313 28.7563 20.4062 29.7188 18.7687 30.4312C17.1312 31.1437 15.375 31.5 13.5 31.5ZM9.75 22.5V20.25H14.25V18.75H9.75V13.5H16.5V15.75H12V17.25H15C15.425 17.25 15.7812 17.3937 16.0688 17.6812C16.3563 17.9688 16.5 18.325 16.5 18.75V21C16.5 21.425 16.3563 21.7812 16.0688 22.0688C15.7812 22.3563 15.425 22.5 15 22.5H9.75Z" fill="white" fill-opacity="0.8"/>
</svg>
