<svg width="25" height="28" viewBox="0 0 25 28" fill="none" xmlns="http://www.w3.org/2000/svg">
<path d="M12.0101 21.7778C11.2323 21.1621 10.3897 20.6841 9.48234 20.3438C8.57493 20.0035 7.63512 19.8334 6.6629 19.8334C5.98234 19.8334 5.31394 19.9225 4.65769 20.1007C4.00144 20.279 3.37354 20.5301 2.77401 20.8542C2.43373 21.0325 2.1056 21.0244 1.78963 20.8299C1.47366 20.6355 1.31567 20.3519 1.31567 19.9792V8.26394C1.31567 8.0857 1.36023 7.91556 1.44935 7.75353C1.53847 7.59149 1.67216 7.46996 1.8504 7.38894C2.59577 7.00005 3.37354 6.70839 4.18373 6.51394C4.99391 6.3195 5.8203 6.22228 6.6629 6.22228C7.60271 6.22228 8.52227 6.3438 9.42158 6.58686C10.3209 6.82992 11.1837 7.1945 12.0101 7.68061V19.4445C12.8365 18.926 13.7034 18.5371 14.6108 18.2778C15.5182 18.0186 16.4337 17.8889 17.3573 17.8889C17.9407 17.8889 18.5119 17.9376 19.0709 18.0348C19.6299 18.132 20.193 18.2778 20.7601 18.4723V6.80561C21.0032 6.88663 21.2422 6.9717 21.4771 7.06082C21.7121 7.14994 21.943 7.25931 22.1698 7.38894C22.3481 7.46996 22.4818 7.59149 22.5709 7.75353C22.66 7.91556 22.7046 8.0857 22.7046 8.26394V19.9792C22.7046 20.3519 22.5466 20.6355 22.2306 20.8299C21.9146 21.0244 21.5865 21.0325 21.2462 20.8542C20.6467 20.5301 20.0188 20.279 19.3625 20.1007C18.7063 19.9225 18.0379 19.8334 17.3573 19.8334C16.3851 19.8334 15.4453 20.0035 14.5379 20.3438C13.6305 20.6841 12.7879 21.1621 12.0101 21.7778ZM13.9546 16.9167V7.68061L18.8157 2.8195V12.5417L13.9546 16.9167ZM10.0657 18.4966V8.87158C9.53095 8.64473 8.97598 8.47054 8.40074 8.34901C7.82551 8.22748 7.24623 8.16672 6.6629 8.16672C6.06336 8.16672 5.48003 8.22343 4.9129 8.33686C4.34577 8.45029 3.79484 8.62042 3.26012 8.84728V18.4966C3.82725 18.2859 4.39033 18.132 4.94935 18.0348C5.50838 17.9376 6.07956 17.8889 6.6629 17.8889C7.24623 17.8889 7.81741 17.9376 8.37644 18.0348C8.93547 18.132 9.49854 18.2859 10.0657 18.4966Z" fill="#64748B"/>
</svg>
