<svg width="25" height="28" viewBox="0 0 25 28" fill="none" xmlns="http://www.w3.org/2000/svg">
<path d="M12.005 13.9941C12.005 13.9941 11.7378 13.9941 11.2033 13.9941C10.6688 13.9941 10.0209 13.6134 9.25962 12.8522C8.49837 12.0909 8.11774 11.1758 8.11774 10.1068C8.11774 9.03781 8.49837 8.12268 9.25962 7.36142C10.0209 6.60017 10.936 6.21954 12.005 6.21954C13.074 6.21954 13.9891 6.60017 14.7504 7.36142C15.5117 8.12268 15.8923 9.03781 15.8923 10.1068C15.8923 11.1758 15.5117 12.0909 14.7504 12.8522C13.9891 13.6134 13.074 13.9941 12.005 13.9941ZM4.23047 21.7686V19.0475C4.23047 18.4968 4.37219 17.9907 4.65564 17.5291C4.93909 17.0674 5.31566 16.7152 5.78538 16.4722C6.78959 15.9701 7.81 15.5935 8.8466 15.3425C9.88321 15.0914 10.936 14.9659 12.005 14.9659C13.074 14.9659 14.1268 15.0914 15.1634 15.3425C16.2 15.5935 17.2204 15.9701 18.2246 16.4722C18.6944 16.7152 19.0709 17.0674 19.3544 17.5291C19.6378 17.9907 19.7795 18.4968 19.7795 19.0475V21.7686H4.23047ZM6.1741 19.825H17.8359V19.0475C17.8359 18.8694 17.7914 18.7074 17.7023 18.5616C17.6132 18.4158 17.4958 18.3025 17.35 18.2215C16.4754 17.7842 15.5926 17.4562 14.7018 17.2375C13.811 17.0189 12.912 16.9095 12.005 16.9095C11.098 16.9095 10.199 17.0189 9.30822 17.2375C8.41738 17.4562 7.53465 17.7842 6.66001 18.2215C6.51424 18.3025 6.39681 18.4158 6.30773 18.5616C6.21865 18.7074 6.1741 18.8694 6.1741 19.0475V19.825ZM12.005 12.0504C12.005 12.0504 12.1386 12.0504 12.4059 12.0504C12.6731 12.0504 12.9971 11.8601 13.3777 11.4795C13.7583 11.0989 13.9486 10.6413 13.9486 10.1068C13.9486 9.57231 13.7583 9.11474 13.3777 8.73411C12.9971 8.35349 12.5395 8.16317 12.005 8.16317C11.4705 8.16317 11.0129 8.35349 10.6323 8.73411C10.2517 9.11474 10.0614 9.57231 10.0614 10.1068C10.0614 10.6413 10.2517 11.0989 10.6323 11.4795C11.0129 11.8601 11.4705 12.0504 12.005 12.0504Z" fill="#64748B"/>
</svg>
